<svg xmlns="http://www.w3.org/2000/svg" xmlns:xlink="http://www.w3.org/1999/xlink" width="64" height="12" viewBox="0 0 64 12">
  <defs>
    <clipPath id="clip-path">
      <rect width="51" height="12" fill="none"/>
    </clipPath>
  </defs>
  <g id="Rating" transform="translate(0)">
    <g id="star_1_" data-name="star (1)" transform="translate(0 0)" clip-path="url(#clip-path)">
      <g id="star_1_2" data-name="star (1)" transform="translate(0 -0.452)">
        <path id="Path_1" data-name="Path 1" d="M6.283.65,7.81,4.438l3.908.352a.327.327,0,0,1,.176.566L8.929,8.049l.888,4.006a.311.311,0,0,1-.459.349L6,10.281,2.642,12.4a.311.311,0,0,1-.459-.349l.888-4.006L.106,5.355a.327.327,0,0,1,.176-.566L4.19,4.437,5.716.65a.3.3,0,0,1,.567,0Z" transform="translate(0 0)" fill="#f60"/>
      </g>
      <g id="star_1_3" data-name="star (1)" transform="translate(13 -0.452)">
        <path id="Path_1-2" data-name="Path 1" d="M6.283.65,7.81,4.438l3.908.352a.327.327,0,0,1,.176.566L8.929,8.049l.888,4.006a.311.311,0,0,1-.459.349L6,10.281,2.642,12.4a.311.311,0,0,1-.459-.349l.888-4.006L.106,5.355a.327.327,0,0,1,.176-.566L4.19,4.437,5.716.65a.3.3,0,0,1,.567,0Z" transform="translate(0 0)" fill="#f60"/>
      </g>
      <g id="star_1_4" data-name="star (1)" transform="translate(26 -0.452)">
        <path id="Path_1-3" data-name="Path 1" d="M6.283.65,7.81,4.438l3.908.352a.327.327,0,0,1,.176.566L8.929,8.049l.888,4.006a.311.311,0,0,1-.459.349L6,10.281,2.642,12.4a.311.311,0,0,1-.459-.349l.888-4.006L.106,5.355a.327.327,0,0,1,.176-.566L4.19,4.437,5.716.65a.3.3,0,0,1,.567,0Z" transform="translate(0 0)" fill="#f60"/>
      </g>
      <g id="star_1_5" data-name="star (1)" transform="translate(39 -0.452)">
        <path id="Path_1-4" data-name="Path 1" d="M6.283.65,7.81,4.438l3.908.352a.327.327,0,0,1,.176.566L8.929,8.049l.888,4.006a.311.311,0,0,1-.459.349L6,10.281,2.642,12.4a.311.311,0,0,1-.459-.349l.888-4.006L.106,5.355a.327.327,0,0,1,.176-.566L4.19,4.437,5.716.65a.3.3,0,0,1,.567,0Z" transform="translate(0 0)" fill="#f60"/>
      </g>
    </g>
    <g id="star" transform="translate(52)">
      <path id="Path_2" data-name="Path 2" d="M11.984,15.546a.339.339,0,0,0-.268-.237l-3.744-.557L6.287,11.2a.333.333,0,0,0-.3-.193h0a.331.331,0,0,0-.3.2L4.028,14.764l-3.744.583a.339.339,0,0,0-.268.237A.356.356,0,0,0,.1,15.94L2.819,18.7,2.191,22.6a.351.351,0,0,0,.133.34.319.319,0,0,0,.195.067.3.3,0,0,0,.155-.041l3.342-1.855,3.352,1.834a.328.328,0,0,0,.153.039h0a.342.342,0,0,0,.332-.348.284.284,0,0,0-.01-.08L9.2,18.677l2.7-2.773A.352.352,0,0,0,11.984,15.546ZM8.609,18.309a.355.355,0,0,0-.094.31L9.08,22,6.169,20.413a.323.323,0,0,0-.31,0l-2.9,1.61L3.5,18.631a.358.358,0,0,0-.1-.307L1.051,15.93,4.3,15.425a.332.332,0,0,0,.249-.191l1.443-3.088,1.463,3.08a.34.34,0,0,0,.251.191l3.251.485Z" transform="translate(0 -11.011)" fill="#f60"/>
    </g>
  </g>
</svg>
